<?xml version="1.0" encoding="iso-8859-1"?>
<!-- Uploaded to: SVG Repo, www.svgrepo.com, Generator: SVG Repo Mixer Tools -->
<svg fill="#000000" height="800px" width="800px" version="1.1" id="Layer_1" xmlns="http://www.w3.org/2000/svg" xmlns:xlink="http://www.w3.org/1999/xlink" 
	 viewBox="0 0 512.001 512.001" xml:space="preserve">
<g>
	<g>
		<path d="M140.797,324.832c-5.256-2.381-11.449-0.047-13.829,5.21l-2.671,5.9c-2.379,5.257-0.047,11.449,5.21,13.829
			c1.398,0.633,2.862,0.933,4.303,0.933c3.978,0,7.779-2.283,9.526-6.142l2.671-5.899
			C148.386,333.403,146.054,327.212,140.797,324.832z"/>
	</g>
</g>
<g>
	<g>
		<path d="M227.158,134.062c-5.255-2.38-11.449-0.047-13.829,5.21l-67.205,148.453c-2.379,5.257-0.047,11.449,5.21,13.829
			c1.398,0.633,2.862,0.933,4.303,0.933c3.977,0,7.779-2.284,9.526-6.142l67.204-148.453
			C234.749,142.634,232.415,136.442,227.158,134.062z"/>
	</g>
</g>
<g>
	<g>
		<path d="M499.315,47.454l-0.577-0.577c-16.909-16.906-44.417-16.908-61.326,0L324.998,159.29
			c-11.905-17.292-14.589-40.639-5.574-57.021c2.241-4.073,1.521-9.139-1.766-12.426c-3.288-3.288-8.354-4.007-12.426-1.766
			c-7.605,4.184-16.244,6.396-24.981,6.397c-13.834,0.001-26.84-5.387-36.622-15.169c-13.845-13.843-18.684-34.034-12.627-52.69
			c1.713-5.275-0.994-10.969-6.165-12.971c-5.171-2.004-11.006,0.382-13.294,5.435L0.93,484.307
			c-1.794,3.964-0.945,8.622,2.131,11.698c2.002,2.002,4.676,3.061,7.392,3.061c1.456,0,2.924-0.305,4.306-0.931L479.99,287.524
			c5.052-2.286,7.437-8.121,5.435-13.293c-2.003-5.172-7.695-7.878-12.971-6.165c-5.189,1.684-10.596,2.538-16.071,2.538
			c-13.835,0-26.841-5.386-36.62-15.164c-16.205-16.206-19.811-41.537-8.77-61.604c2.241-4.073,1.521-9.138-1.765-12.426
			c-3.289-3.288-8.355-4.007-12.428-1.766c-6.32,3.478-13.988,5.315-22.173,5.316c-12.321,0.001-24.741-3.977-34.838-10.905
			L452.191,61.656c8.759-8.761,23.011-8.76,31.777,0.006l0.577,0.576c8.76,8.759,8.76,23.012,0,31.77
			c-4.081,4.081-4.081,10.697,0.001,14.778c4.079,4.081,10.697,4.081,14.778-0.001C516.228,91.878,516.228,64.368,499.315,47.454z
			 M374.629,205.859c3.526,0,7-0.249,10.393-0.737c-4.372,23.19,2.702,47.833,19.964,65.096
			c7.438,7.437,16.203,13.063,25.763,16.657L31.408,467.659L212.186,68.331c3.583,9.482,9.187,18.273,16.664,25.751
			c13.731,13.729,31.985,21.291,51.402,21.29c4.597,0,9.176-0.438,13.668-1.296c-3.408,23.582,4.911,49.988,22.998,68.074
			C331.766,196.996,353.341,205.86,374.629,205.859z"/>
	</g>
</g>
</svg>